<?xml version="1.0" encoding="utf-8"?>
<svg version="1.1" id="Ebene_1" xmlns="http://www.w3.org/2000/svg" xmlns:xlink="http://www.w3.org/1999/xlink" x="0px"
	y="0px" viewBox="0 0 32 32" style="enable-background:new 0 0 32 32;" xml:space="preserve">
	<style type="text/css">
		.st0 {
			display: none;
			stroke: #FFFFFF;
		}
	</style>
	<rect x="-409.01" y="-281.29" class="st0" width="845.44" height="594.86" />
	<g>
		<path d="M22.77,27.38c0-0.27-0.15-0.41-0.41-0.41c-12.46,0-13,0-14.59,0c-1.58,0-2.21-1.03-2.21-2.3c0-1.27,0-15.97,0-15.97
		c0-0.27-0.15-0.41-0.41-0.41l-4.21,0c-0.27,0-0.41,0.15-0.41,0.41c0,12.47,0,13.86,0,15.02l0,0v2.62C0.53,30.07,2.22,32,6.2,32
		c0.54,0,16.15,0,16.15,0c0.27,0,0.41-0.15,0.41-0.41L22.77,27.38z" />
		<path d="M9.23,4.62c0,0.27,0.15,0.41,0.41,0.41c12.46,0,13,0,14.59,0c1.58,0,2.21,1.03,2.21,2.3c0,1.27,0,15.97,0,15.97
		c0,0.27,0.15,0.42,0.41,0.42l4.21,0c0.27,0,0.41-0.15,0.41-0.41c0-12.46,0-13.86,0-15.02l0,0V5.65C31.47,1.93,29.78,0,25.8,0
		C25.26,0,9.65,0,9.65,0C9.38,0,9.23,0.15,9.23,0.41L9.23,4.62z" />
	</g>
</svg>